PathFileType	4	(X/Y/Z)	C:/Users/beibeiliu/ov580/test_trc\sequence.17_training_dense_right.trc
DataRate	CameraRate	NumFrames	NumMarkers	Units	OrigDataRate	OrigDataStartFrame	OrigNumFrames
120	120	23	19	mm	120	1	78
Frame#	Time	ThumbCMC			ThumbMCP			ThumbIP			ThumbTip			IndexMCP			IndexPIP			IndexTip			MiddleMCP			MiddlePIP			MiddleTip			RingMCP			RingPIP			RingTip			PinkyMCP			PinkyPIP			PinkyTip			BackHand1			BackHand2			BackHand3	
		X0	Y0	Z0	X1	Y1	Z1	X2	Y2	Z2	X3	Y3	Z3	X4	Y4	Z4	X5	Y5	Z5	X6	Y6	Z6	X7	Y7	Z7	X8	Y8	Z8	X9	Y9	Z9	X10	Y10	Z10	X11	Y11	Z11	X12	Y12	Z12	X13	Y13	Z13	X14	Y14	Z14	X15	Y15	Z15	X16	Y16	Z16	X17	Y17	Z17	X18	Y18	Z18	
0	0	24.068	53.2966	35.639	6.75305	32.1229	16.8411	3.61243	20.7232	-5.18864	3.63628	10.5371	-23.1741	22.1186	52.8265	-32.3872	19.6594	32.2205	-51.8892	15.0918	13.5073	-61.3598	45.8903	52.4962	-39.9981	40.6519	35.1204	-59.679	43.0388	10.144	-73.6498	62.88	48.051	-35.3408	61.1904	30.0887	-53.2504	60.4042	8.73555	-64.3702	81.7543	45.5875	-24.4065	84.5578	30.9563	-39.0973	85.3965	15.9733	-50.1783	65.0851	72.1122	7.23348	65.9399	79.53	34.4218	40.0477	76.8311	23.4917	
1	0.00833333	21.4405	54.697	30.6841	10.5434	35.7869	17.3422	4.94066	24.0211	-7.12495	0.231184	11.5612	-21.4136	21.8521	54.6916	-32.1367	16.5321	36.1559	-52.4811	18.2388	13.8894	-63.6956	42.1064	55.0197	-38.8167	39.5146	34.282	-62.0788	41.9438	10.9795	-74.8899	60.0673	49.6012	-37.5062	65.5202	33.8973	-51.5153	58.6163	11.7675	-64.2153	80.5478	48.0206	-23.8575	83.8853	32.4497	-40.2929	79.3013	16.3127	-52.2158	64.6139	73.605	7.23208	66.0361	80.3069	33.8689	38.819	79.5887	20.1945	
2	0.0166667	21.4712	55.3195	36.128	11.5232	36.2757	14.7891	4.07748	24.4797	-6.38586	3.3397	14.65	-23.1002	22.898	55.181	-32.4925	16.3416	39.7477	-49.7774	18.6286	18.2857	-63.0172	42.4429	52.9949	-43.1688	39.6829	35.3114	-61.7854	42.3504	10.0974	-75.0826	63.6946	49.9291	-36.1415	61.8718	34.4657	-50.9553	59.7571	12.5273	-62.8362	81.2685	48.2791	-25.6141	84.0931	33.6403	-37.7635	80.9834	19.7032	-50.412	66.2662	73.7902	6.14422	69.6448	81.0201	30.8226	41.969	80.5548	21.4729	
3	0.025	21.663	53.58	34.0068	10.2282	34.6332	17.9162	5.80122	24.0817	-7.46219	2.79603	12.2911	-23.8775	22.6424	55.2439	-30.0123	18.2096	35.82	-51.8985	21.1034	16.5508	-63.723	48.0412	53.0613	-40.9005	44.6398	33.7076	-62.1517	45.4871	11.1204	-73.945	63.1226	48.7782	-37.2132	63.3482	30.7675	-53.8316	58.7147	11.622	-63.173	82.4336	47.1612	-23.5947	84.2699	34.4357	-36.4052	82.4306	15.714	-52.7843	65.2526	73.4498	7.27802	70.4194	76.8331	34.9939	39.795	77.4506	19.5596	
4	0.0333333	21.9653	54.1207	33.6152	12.6549	35.8207	16.9739	6.02037	25.9631	-6.05024	4.04104	15.1231	-24.8874	25.7134	58.033	-32.6738	19.2692	43.2778	-50.6735	22.5735	20.3588	-62.1736	45.2491	59.275	-36.5155	43.4028	40.1174	-62.2517	42.748	20.8813	-76.2236	64.4761	53.5337	-31.394	61.348	36.3712	-54.6987	59.1462	18.0013	-67.7742	85.131	49.5371	-20.124	85.2364	36.2536	-41.1272	83.2209	21.189	-54.7437	68.3586	72.8989	12.5169	75.3918	77.4295	36.5819	47.7774	77.7582	24.888	
5	0.0416667	24.1331	59.9909	31.3361	14.9528	43.9008	14.2398	6.99455	35.3575	-4.00246	2.31513	26.5804	-24.3531	24.4063	72.8036	-30.6165	23.8498	56.3943	-53.7185	16.9143	29.3189	-59.814	49.3743	75.2381	-36.7727	46.9235	64.5898	-63.5411	41.8544	46.4222	-81.311	64.8608	68.5122	-35.6247	66.4045	58.4567	-56.8501	58.5476	44.1043	-71.6795	87.885	59.9969	-25.1638	86.0358	54.0194	-41.6621	87.2361	40.4105	-63.1298	74.5582	78.3509	10.129	75.1014	79.7519	35.1436	49.7645	84.1804	22.6101	
6	0.05	26.9923	67.3512	30.1749	10.5351	52.7199	13.5075	0.303127	45.475	-8.90853	-3.04363	36.3226	-27.8379	25.1366	87.2013	-30.7761	17.2948	68.4121	-52.0551	22.9638	41.2714	-49.9089	46.8575	93.8907	-36.5041	44.1789	88.447	-63.8006	40.837	73.3071	-86.6832	69.7954	86.9268	-35.3596	68.4435	82.9529	-58.5114	63.2326	74.2677	-77.5753	85.9093	75.3375	-23.93	91.1648	70.44	-45.9357	90.8214	65.5834	-67.7301	72.3667	88.0916	13.501	74.5098	84.9961	37.3265	48.9232	91.7792	24.3729	
7	0.0583333	25.6852	68.7801	32.6074	9.90324	55.4153	10.7658	1.36845	48.4821	-10.8998	-1.45195	40.4124	-33.5308	21.3241	91.9276	-31.774	19.8095	67.9029	-50.2118	23.5699	42.0142	-37.0179	46.9862	100.757	-38.6196	42.1996	99.2899	-64.9061	40.9415	89.0026	-92.7564	69.609	95.2621	-35.6799	69.5819	97.1209	-58.8034	62.3374	96.3217	-77.3908	85.7304	82.7377	-23.1943	89.6564	83.9996	-42.233	97.0491	86.2645	-63.5735	70.3417	93.9263	8.58652	75.1947	87.6109	37.597	46.6015	95.0097	27.1475	
8	0.0666667	26.8202	64.5852	26.7432	8.82906	49.2857	10.3259	3.99291	42.6618	-10.7651	2.14194	33.0812	-33.2199	22.2046	82.2445	-34.4379	18.0234	58.4657	-49.0797	25.0521	37.1054	-33.5167	46.596	94.5583	-38.6012	41.5883	94.1526	-67.4207	38.8808	91.5686	-87.0872	65.9911	89.814	-31.6427	66.9622	94.2031	-54.3613	66.2123	98.8567	-78.1784	86.7995	78.1931	-24.4452	89.8093	81.6654	-43.0979	100.628	85.7777	-55.6795	73.7047	87.0758	7.88885	76.9995	82.4863	32.4619	49.2373	87.9463	25.4887	
9	0.075	26.0864	53.5641	31.9293	9.9	37.193	9.86879	4.90964	29.9204	-10.8844	7.19448	20.2828	-35.1652	25.1486	67.4497	-36.0277	17.6195	44.8055	-47.5975	27.3029	23.1978	-26.0883	43.8946	80.7618	-42.1989	42.2972	79.6039	-67.6314	39.5171	80.4147	-87.5922	68.3802	75.543	-32.8396	68.102	80.3484	-54.0055	68.5856	87.1027	-74.497	90.228	64.6652	-23.6588	93.1866	69.362	-40.1082	99.8421	79.2871	-52.0352	69.626	72.2761	9.17747	77.3393	71.5284	30.0616	52.0958	78.3427	24.5133	
10	0.0833333	31.5661	45.4834	28.2783	11.8617	27.8585	8.08856	7.41848	17.3046	-12.4643	14.8176	8.14095	-34.861	26.9965	56.6656	-33.0973	22.0604	28.1191	-46.116	33.1364	11.1905	-27.9403	50.0792	66.7841	-42.9787	49.3934	66.9026	-64.8193	46.132	67.0906	-88.5713	73.8182	64.6722	-36.8352	74.1649	68.7205	-54.6218	74.6829	75.381	-73.5503	94.3576	53.0569	-23.2952	96.9686	58.4033	-38.9277	106.318	71.004	-51.2765	73.4547	62.6822	9.98213	79.8894	64.3594	33.6154	53.9728	66.9276	23.3538	
11	0.0916667	34.1037	41.7167	32.0589	20.8019	26.2742	9.69475	13.2263	14.9706	-15.7167	17.819	3.75861	-36.7809	28.4293	51.661	-35.3274	27.564	25.3802	-47.6065	35.1471	7.44833	-25.1375	51.294	63.4967	-40.0494	50.8008	63.6909	-66.8141	46.2513	64.652	-89.2008	76.7323	61.6895	-36.3786	79.1277	64.6561	-55.051	78.1402	72.3607	-76.1261	94.0342	52.8795	-27.1431	102.903	56.9965	-40.5527	111.526	65.9305	-49.8031	78.196	61.2292	4.00058	82.121	61.7976	31.2993	52.5757	65.7521	19.1818	
12	0.1	32.6427	43.3472	30.9865	21.0789	27.1562	8.8673	15.4826	16.7987	-10.9201	17.5447	6.8892	-33.1632	28.2863	53.7268	-37.7228	28.9618	27.9124	-48.3289	31.9287	9.36732	-29.4648	51.3799	66.8243	-44.7537	53.1632	64.7735	-69.4524	50.2335	65.6714	-90.0899	76.5582	64.1008	-37.583	81.7298	67.9199	-58.1944	77.8999	75.3445	-75.4693	97.658	54.8982	-25.7347	101.748	58.6947	-40.1079	109.871	68.4922	-51.4683	77.7442	65.0924	5.91712	82.6052	62.8558	30.5112	54.6969	69.1524	22.9468	
13	0.108333	36.7054	45.8381	27.5881	20.8289	28.8404	7.73219	17.0247	21.6154	-13.4959	17.6419	10.7574	-33.0553	32.969	57.7964	-35.0831	30.6018	32.3502	-49.5774	36.5801	10.8445	-26.903	57.3726	69.9002	-40.3593	53.7826	70.1515	-64.6108	51.1268	71.4802	-91.86	79.6532	67.8315	-37.7749	75.9759	72.0025	-55.2472	79.8414	77.9955	-71.5091	98.4784	56.8514	-21.8992	104.465	62.6125	-40.3605	107.792	71.611	-49.2696	78.1063	66.1194	9.57258	82.9371	65.6912	30.2481	54.2643	71.2417	23.9446	
14	0.116667	36.585	45.3783	26.992	20.7764	28.5124	7.4109	19.6632	23.4065	-16.2705	23.4949	15.5406	-41.932	31.5858	60.5102	-38.3354	34.6977	34.6427	-50.1605	39.2161	15.417	-31.141	53.9052	74.0721	-40.7806	55.8417	75.5022	-63.0337	51.8808	78.2893	-89.464	81.5269	72.8659	-35.0143	80.7475	80.572	-56.5606	80.0836	88.3623	-74.0021	98.5604	62.6873	-21.8667	107.014	68.4521	-34.5989	112.42	82.2673	-48.175	82.0869	69.0802	8.54076	81.9148	68.2112	33.6449	55.1284	71.0771	20.5969	
15	0.125	39.247	48.1759	23.6651	29.7384	32.056	1.8849	26.0376	26.2118	-20.7208	31.2459	20.8697	-43.0818	36.1412	65.7446	-39.7226	39.6657	39.8325	-52.7325	47.3723	20.4127	-34.6157	58.6353	82.0368	-44.0361	55.0694	84.2453	-67.5714	54.3623	88.0767	-88.4322	80.372	83.5655	-35.6505	87.3147	90.2084	-51.6731	86.2938	100.045	-71.5754	103.537	74.1628	-21.9256	110.709	80.7711	-34.8409	115.649	94.6961	-45.504	86.0743	77.5148	9.27766	87.7032	75.801	30.7596	58.5419	74.5683	22.707	
16	0.133333	48.906	55.1333	20.3288	36.1189	37.8482	-3.4441	37.0526	33.9956	-28.2794	41.6579	26.4946	-49.4074	43.983	72.0352	-44.2944	46.9101	47.4581	-56.492	60.6357	27.9058	-37.105	64.8187	90.2667	-43.464	63.4344	91.666	-67.9647	67.8012	94.9462	-91.4672	87.4241	90.1438	-33.7915	91.5176	100.017	-57.1511	91.69	109.452	-75.2254	109.892	82.5738	-20.8293	117.433	92.2757	-38.7783	123.741	105.81	-47.5364	89.1334	86.156	7.95189	92.2459	83.7893	32.2977	64.5967	82.0065	20.4306	
17	0.141667	50.9234	66.0582	16.9219	44.1778	47.7708	-6.80581	39.3584	37.7337	-25.3741	44.1857	29.6736	-45.8949	54.9988	77.1963	-48.0428	56.6155	51.258	-57.7734	63.5619	32.9389	-38.0694	77.5565	92.5088	-51.1122	76.2437	91.3995	-76.1057	74.4156	91.1297	-98.4822	96.6596	93.3194	-40.8125	104.991	98.4457	-63.6261	102.629	103.665	-79.7099	118.407	85.2875	-27.3818	128.923	90.2867	-41.241	138.648	100.418	-46.55	98.8693	91.8273	4.09487	99.5834	90.6808	30.8846	69.4487	91.3267	16.5534	
18	0.15	55.1004	78.4749	20.3228	44.8521	57.11	-3.08974	38.4067	43.7659	-18.8462	41.1115	29.2495	-39.6233	60.8541	77.0585	-46.4116	57.7135	50.7526	-55.0801	62.5583	30.9217	-29.721	86.042	83.1052	-55.127	88.0882	75.5049	-74.0734	88.9542	66.9066	-100.427	111.849	78.2476	-39.9327	113.986	78.0641	-62.0454	115.765	78.0965	-84.5928	125.768	69.4538	-24.6234	136.939	69.4206	-42.8691	147.107	72.8715	-49.3539	105.911	89.0664	-0.648848	106.671	90.9	25.336	84.433	98.1487	10.9218	
19	0.158333	65.835	90.9132	15.7287	49.4416	69.252	1.36512	39.6316	55.1111	-9.29813	34.1066	34.7557	-24.1426	68.2589	72.1587	-43.1141	52.5809	47.1982	-47.172	46.9315	35.7756	-21.5115	94.5988	60.8154	-52.4725	87.1435	48.6831	-71.0541	80.9362	34.3108	-91.7306	112.78	53.8428	-42.0442	110.786	47.1	-60.9595	111.698	38.1225	-81.5688	122.972	46.2544	-20.3209	130.785	36.8494	-34.4242	141.569	36.8787	-50.282	115.429	77.8202	-4.36504	120.981	86.0127	19.1232	100.149	97.1505	7.20115	
20	0.166667	81.2268	97.8441	12.5017	54.9801	87.6747	8.81999	34.4784	73.5938	-0.337961	29.8589	51.1341	-7.77425	69.4769	65.0561	-40.2115	43.4837	53.1729	-37.7965	36.6748	50.1416	-9.85984	85.673	51.486	-43.1222	73.3009	35.0662	-57.4084	53.8082	18.7002	-73.2093	99.3264	36.9038	-33.7942	90.6693	24.0256	-49.9651	86.8062	10.9737	-61.0002	112.808	25.6339	-10.7806	110.718	14.0103	-19.9408	116.942	3.01498	-33.4801	122.896	63.3197	1.11838	132.036	76.3051	18.7136	107.925	92.1754	-2.72136	
21	0.175	95.3067	106.029	9.40662	64.9655	101.634	9.58443	40.9873	96.8087	6.09212	26.7207	80.4921	6.78413	61.2135	71.3913	-35.3163	36.9619	69.7473	-29.504	33.1109	75.5543	4.15649	70.4359	48.9697	-34.7544	47.4225	41.1594	-44.7276	26.6258	28.7434	-50.5741	79.6488	31.369	-22.3325	65.5717	23.701	-30.4613	51.5218	12.064	-40.7429	90.2056	20.82	-1.8539	80.5712	10.9784	-8.38548	78.4077	-2.94658	-18.0776	117.461	59.1428	0.578374	133.007	66.4306	16.6434	119.335	83.0046	-2.3896	
22	0.183333	109.419	107.927	10.0273	82.7074	117.53	14.722	54.6899	117.895	11.3186	34.3823	108.353	15.9534	59.1923	89.4484	-28.9187	35.9723	96.0537	-15.533	38.2371	101.98	12.2829	60.7681	62.5721	-22.8719	34.444	61.7392	-29.1686	6.12349	61.6593	-33.0177	64.8452	45.1278	-9.72976	43.3707	42.2051	-18.4343	23.3569	35.8144	-23.0629	68.6436	33.7815	6.53219	56.5234	24.7189	8.37564	44.2751	13.6629	-2.26169	106.367	55.0945	-0.56131	130.591	60.4001	16.7167	117.33	78.6086	-4.28647	
